HIERARCHY
ROOT Hips
{
	OFFSET 0.000000 89.005402 0.000000
	CHANNELS 6 Xposition Yposition Zposition Xrotation Yrotation Zrotation
	JOINT Spine
	{
		OFFSET 0.116900 10.681000 0.373400
		CHANNELS 3 Xrotation Yrotation Zrotation
		JOINT Spine1
		{
			OFFSET 0.000000 13.840401 0.053500
			CHANNELS 3 Xrotation Yrotation Zrotation
			JOINT Spine2
			{
				OFFSET 0.000000 14.712700 -0.366200
				CHANNELS 3 Xrotation Yrotation Zrotation
				JOINT Neck
				{
					OFFSET 0.000000 35.415497 -3.314200
					CHANNELS 3 Xrotation Yrotation Zrotation
					JOINT Head
					{
						OFFSET 0.000000 16.899200 1.218300
						CHANNELS 3 Xrotation Yrotation Zrotation
						JOINT HeadTop_End
						{
							OFFSET 0.000000 22.206207 2.192500
							CHANNELS 3 Xrotation Yrotation Zrotation
							End Site
							{
								OFFSET 0.000000 22.314178 0.000000
							}
						}
					}
				}
				JOINT LeftShoulder
				{
					OFFSET 12.896400 26.716293 -4.548400
					CHANNELS 3 Xrotation Yrotation Zrotation
					JOINT LeftArm
					{
						OFFSET 19.027000 -4.857010 -1.718400
						CHANNELS 3 Xrotation Yrotation Zrotation
						JOINT LeftForeArm
						{
							OFFSET 24.179897 0.000000 0.000000
							CHANNELS 3 Xrotation Yrotation Zrotation
							JOINT LeftHand
							{
								OFFSET 27.156403 0.000000 0.000000
								CHANNELS 3 Xrotation Yrotation Zrotation
								JOINT LeftHandIndex1
								{
									OFFSET 16.441200 0.000000 0.000000
									CHANNELS 3 Xrotation Yrotation Zrotation
									JOINT LeftHandIndex2
									{
										OFFSET 4.821899 0.000000 0.000000
										CHANNELS 3 Xrotation Yrotation Zrotation
										JOINT LeftHandIndex3
										{
											OFFSET 6.386497 0.000000 0.000000
											CHANNELS 3 Xrotation Yrotation Zrotation
											JOINT LeftHandIndex4
											{
												OFFSET 5.188988 0.000000 0.000000
												CHANNELS 3 Xrotation Yrotation Zrotation
												End Site
												{
													OFFSET -0.178703 5.185913 0.000177
												}
											}
										}
									}
								}
								JOINT LeftHandThumb1
								{
									OFFSET 6.534897 -5.032593 5.900300
									CHANNELS 3 Xrotation Yrotation Zrotation
									JOINT LeftHandThumb2
									{
										OFFSET 3.818176 -2.204422 2.204423
										CHANNELS 3 Xrotation Yrotation Zrotation
										JOINT LeftHandThumb3
										{
											OFFSET 3.252098 -1.877594 1.877601
											CHANNELS 3 Xrotation Yrotation Zrotation
											JOINT LeftHandThumb4
											{
												OFFSET 5.251778 -3.032120 3.032117
												CHANNELS 3 Xrotation Yrotation Zrotation
												End Site
												{
													OFFSET 0.000023 6.780014 0.000000
												}
											}
										}
									}
								}
							}
						}
					}
				}
				JOINT RightShoulder
				{
					OFFSET -12.896300 26.716293 -4.548400
					CHANNELS 3 Xrotation Yrotation Zrotation
					JOINT RightArm
					{
						OFFSET -19.027000 -4.857010 -1.718400
						CHANNELS 3 Xrotation Yrotation Zrotation
						JOINT RightForeArm
						{
							OFFSET -24.179897 0.000000 0.000000
							CHANNELS 3 Xrotation Yrotation Zrotation
							JOINT RightHand
							{
								OFFSET -27.156403 0.000000 0.000000
								CHANNELS 3 Xrotation Yrotation Zrotation
								JOINT RightHandThumb1
								{
									OFFSET -6.591202 -4.852203 5.988100
									CHANNELS 3 Xrotation Yrotation Zrotation
									JOINT RightHandThumb2
									{
										OFFSET -3.818176 -2.204422 2.204423
										CHANNELS 3 Xrotation Yrotation Zrotation
										JOINT RightHandThumb3
										{
											OFFSET -3.252098 -1.877594 1.877601
											CHANNELS 3 Xrotation Yrotation Zrotation
											JOINT RightHandThumb4
											{
												OFFSET -5.251778 -3.032120 3.032117
												CHANNELS 3 Xrotation Yrotation Zrotation
												End Site
												{
													OFFSET -0.000023 6.780014 0.000000
												}
											}
										}
									}
								}
								JOINT RightHandIndex1
								{
									OFFSET -16.029404 0.000000 0.000000
									CHANNELS 3 Xrotation Yrotation Zrotation
									JOINT RightHandIndex2
									{
										OFFSET -5.213303 0.000000 0.000000
										CHANNELS 3 Xrotation Yrotation Zrotation
										JOINT RightHandIndex3
										{
											OFFSET -6.386528 0.000000 0.000000
											CHANNELS 3 Xrotation Yrotation Zrotation
											JOINT RightHandIndex4
											{
												OFFSET -5.189026 0.000000 0.000000
												CHANNELS 3 Xrotation Yrotation Zrotation
												End Site
												{
													OFFSET 0.236702 5.183624 0.001972
												}
											}
										}
									}
								}
							}
						}
					}
				}
			}
		}
	}
	JOINT LeftUpLeg
	{
		OFFSET 14.073000 -7.904099 -1.463000
		CHANNELS 3 Xrotation Yrotation Zrotation
		JOINT LeftLeg
		{
			OFFSET -0.109806 -34.073280 4.093200
			CHANNELS 3 Xrotation Yrotation Zrotation
			JOINT LeftFoot
			{
				OFFSET 0.109806 -29.899420 -6.319000
				CHANNELS 3 Xrotation Yrotation Zrotation
				JOINT LeftToeBase
				{
					OFFSET 1.551100 -14.988700 20.535801
					CHANNELS 3 Xrotation Yrotation Zrotation
					JOINT LeftToe_End
					{
						OFFSET 0.221200 0.570800 13.248301
						CHANNELS 3 Xrotation Yrotation Zrotation
						End Site
						{
							OFFSET 0.000000 13.262435 0.000000
						}
					}
				}
			}
		}
	}
	JOINT RightUpLeg
	{
		OFFSET -13.839300 -7.904099 -1.463000
		CHANNELS 3 Xrotation Yrotation Zrotation
		JOINT RightLeg
		{
			OFFSET 0.109694 -34.073219 4.093300
			CHANNELS 3 Xrotation Yrotation Zrotation
			JOINT RightFoot
			{
				OFFSET -0.109694 -29.899384 -6.319200
				CHANNELS 3 Xrotation Yrotation Zrotation
				JOINT RightToeBase
				{
					OFFSET -1.551100 -14.988700 20.535801
					CHANNELS 3 Xrotation Yrotation Zrotation
					JOINT RightToe_End
					{
						OFFSET -0.221200 0.570900 13.248299
						CHANNELS 3 Xrotation Yrotation Zrotation
						End Site
						{
							OFFSET 0.000000 13.262440 0.000000
						}
					}
				}
			}
		}
	}
}
MOTION
Frames: 9
Frame Time: 0.033333
2.505015 82.628479 -2.345171 -9.709154 -26.900869 -5.810441 3.743155 -2.783296 0.956459 7.208728 -5.815602 0.504506 7.218806 -5.803469 0.483230 -3.695728 -7.119677 0.879729 -6.159164 -34.110702 1.057993 0.000000 0.000001 0.000000 0.772674 0.033832 -9.687964 68.498669 -67.320803 12.407845 0.000007 -27.838984 0.000018 -40.670040 -12.895666 12.818485 0.027419 0.615040 -5.103375 0.134021 1.354618 -11.300067 0.033610 0.680614 -5.649233 0.000000 -0.000002 0.000000 -2.015405 -10.085619 2.040775 3.259839 9.250007 3.466992 -0.926705 2.220425 3.859768 0.000001 -0.000001 -0.000001 1.220132 1.977509 10.367919 6.843481 27.866047 53.074350 -0.000008 33.641612 0.000044 -10.446123 -13.474740 -1.077886 61.905795 6.792846 -54.480294 19.808525 -20.682527 7.406854 5.689993 -6.479936 0.399011 -0.000003 -0.000001 0.000001 0.023476 -0.572140 4.700171 0.003704 -0.227627 1.868178 0.000925 -0.113830 0.934100 0.000001 0.000000 -0.000001 -0.876265 31.180561 9.524963 33.092895 8.394624 3.956487 -23.202600 10.763980 -10.722284 -0.000018 -0.000000 0.000002 -0.000000 0.000000 0.000000 -14.116397 -17.496301 -2.896310 34.561488 8.752057 -10.213084 -12.516741 6.270837 5.493817 -0.000433 -0.000002 -0.000000 -0.000000 -0.000000 -0.000000 
2.140670 82.839203 -2.035978 -9.611306 -23.776549 -5.133268 3.715243 -2.759323 0.927027 7.148656 -5.752451 0.295893 7.160161 -5.737693 0.275141 -3.805932 -7.079139 1.075264 -6.063902 -33.696004 1.434781 -0.000000 0.000001 -0.000000 0.746376 0.387313 -9.643183 67.728723 -66.910623 11.809364 -0.000001 -27.251972 0.000003 -41.375534 -12.842131 12.344309 0.039592 0.738834 -6.134452 0.134012 1.354624 -11.300060 0.033568 0.680608 -5.649235 0.000000 -0.000001 -0.000000 -2.243822 -9.986458 1.583705 3.472580 9.246819 3.572952 -0.822791 2.214187 3.927193 0.000000 -0.000001 -0.000002 1.258293 1.993215 10.432451 6.402420 28.034110 52.561680 -0.000002 32.618477 -0.000018 -9.708323 -13.346179 -0.765187 61.284357 6.542958 -54.003300 19.679206 -20.604316 7.392275 5.631402 -6.434422 0.402380 -0.000002 -0.000001 -0.000001 0.024940 -0.589640 4.844346 0.003708 -0.227624 1.868143 0.000929 -0.113830 0.934078 0.000002 0.000001 0.000000 -0.502682 28.857211 8.972502 32.323037 8.428452 4.182404 -22.454635 9.958535 -10.829738 -0.000012 0.000000 -0.000004 0.000000 -0.000000 0.000000 -12.633932 -18.875069 -3.609149 34.179298 8.749270 -10.033704 -13.522124 4.715528 5.526266 -0.118862 0.000005 0.000001 0.000000 0.000002 0.000000 
1.800144 83.031075 -1.749980 -9.582799 -20.904065 -4.516815 3.696436 -2.714088 0.847705 7.113306 -5.640467 0.083773 7.125186 -5.624331 0.064046 -3.925366 -7.017352 1.231381 -6.053694 -33.230936 1.796026 0.000000 -0.000000 -0.000000 0.720324 0.741993 -9.639178 66.904619 -66.568752 11.091935 0.000014 -26.795582 -0.000000 -41.794952 -12.645419 11.591336 0.146838 1.417237 -11.830012 0.134011 1.354630 -11.300060 0.033579 0.680605 -5.649240 -0.000000 0.000002 -0.000000 -2.474238 -9.666091 1.118813 3.704298 9.201062 3.686975 -0.710352 2.186138 3.999761 0.000002 -0.000000 -0.000000 1.289494 2.002328 10.485847 6.022711 28.254070 52.107182 -0.000008 31.709765 0.000021 -9.208070 -13.594033 -0.140528 60.582740 6.339055 -53.455540 19.529876 -20.510208 7.357635 5.564870 -6.378975 0.397666 -0.000004 -0.000002 0.000001 0.026221 -0.604541 4.967051 0.003717 -0.227627 1.868135 0.000923 -0.113830 0.934109 0.000000 0.000001 0.000001 -0.217684 27.075070 8.546307 31.552066 8.480745 4.556814 -21.731722 8.876042 -11.078561 -0.000030 0.000007 -0.000001 -0.000000 -0.000000 0.000000 -11.218502 -20.453080 -4.170305 33.723827 8.697357 -10.048720 -14.403093 3.488184 5.629422 -0.333934 0.000003 0.000000 0.000000 0.000000 0.000000 
1.477790 83.193626 -1.485770 -9.554898 -18.386103 -3.930140 3.681525 -2.633365 0.732248 7.090043 -5.455262 -0.124134 7.101353 -5.438886 -0.142449 -4.081289 -6.938971 1.344124 -6.114907 -32.732753 2.128935 -0.000000 0.000000 0.000000 0.698346 1.117747 -9.693093 66.142780 -66.281932 10.396273 -0.000007 -26.425693 -0.000005 -41.820022 -12.327483 10.572802 0.424459 2.384435 -20.184607 0.134021 1.354606 -11.300066 0.033605 0.680634 -5.649226 0.000000 0.000001 -0.000003 -2.696518 -9.078763 0.656639 3.955408 9.170741 3.812127 -0.588180 2.165118 4.079260 -0.000001 0.000002 -0.000000 1.307929 1.984657 10.523312 5.720743 28.533988 51.720412 -0.000003 30.995241 0.000021 -8.812366 -14.130276 0.818789 59.802493 6.176540 -52.840123 19.361315 -20.400708 7.303894 5.490682 -6.314009 0.385276 -0.000002 0.000001 -0.000002 0.027278 -0.616583 5.066289 0.003711 -0.227627 1.868156 0.000928 -0.113828 0.934083 0.000000 -0.000001 -0.000000 -0.031077 25.809813 8.259722 30.825340 8.530695 4.906675 -21.086150 7.613495 -11.372109 -0.000008 0.000009 0.000001 0.000000 0.000002 0.000000 -9.983943 -22.082879 -4.536195 33.276951 8.587843 -10.334277 -15.173238 2.499149 5.841542 -0.538077 -0.000003 -0.000000 -0.000000 -0.000002 -0.000000 
1.172720 83.319115 -1.237884 -9.486992 -16.237286 -3.359646 3.667107 -2.509977 0.586175 7.069189 -5.186625 -0.348575 7.079232 -5.170777 -0.365253 -4.275209 -6.856190 1.452668 -6.236738 -32.211186 2.449542 -0.000000 0.000002 0.000000 0.682074 1.474726 -9.766889 65.332262 -66.031865 9.620379 -0.000002 -26.080813 -0.000002 -41.461574 -11.993320 9.449217 0.840191 3.301127 -28.551895 0.147257 1.419292 -11.847293 0.036914 0.713443 -5.922743 0.000002 0.000002 0.000002 -2.913205 -8.333729 0.182611 4.225114 9.182621 3.949046 -0.456183 2.164454 4.166062 0.000002 -0.000001 0.000003 1.317118 1.925921 10.556040 5.484605 28.882899 51.437991 -0.000013 30.499711 0.000046 -8.488582 -14.726747 2.018617 58.945168 6.050471 -52.160013 19.174253 -20.276253 7.232017 5.409068 -6.239849 0.365608 0.000002 0.000000 0.000000 0.028211 -0.627012 5.152205 0.003712 -0.227625 1.868153 0.000926 -0.113828 0.934091 -0.000000 -0.000000 0.000001 0.073195 24.834966 8.063829 30.196464 8.561624 5.111278 -20.544164 6.410315 -11.615281 -0.000041 -0.000007 0.000001 -0.000000 -0.000002 -0.000000 -8.992831 -23.595022 -4.753273 32.911290 8.449748 -10.802749 -15.860480 1.663640 6.123712 -0.716346 0.000015 0.000002 -0.000000 0.000002 0.000000 
0.889476 83.414803 -1.005223 -9.393209 -14.397030 -2.802875 3.651662 -2.345863 0.410118 7.045556 -4.841785 -0.616193 7.053974 -4.826818 -0.631153 -4.483530 -6.782360 1.607542 -6.421946 -31.675371 2.776819 -0.000000 0.000001 0.000000 0.670462 1.741740 -9.798463 64.250859 -65.802302 8.540086 -0.000000 -25.684021 -0.000006 -40.792191 -11.775034 8.412391 1.199106 3.887694 -34.271813 0.235269 1.788002 -14.991261 0.059033 0.901695 -7.493794 -0.000001 0.000001 -0.000001 -3.123725 -7.518651 -0.306247 4.508084 9.256632 4.096056 -0.316435 2.194264 4.259166 0.000002 0.000001 0.000002 1.325716 1.825542 10.601275 5.282524 29.291635 51.299256 -0.000013 30.202287 0.000030 -8.299479 -15.118701 3.275021 58.012164 5.955839 -51.417896 18.969450 -20.137312 7.142963 5.320277 -6.156869 0.339068 0.000002 0.000001 0.000002 0.029139 -0.637231 5.236384 0.003712 -0.227628 1.868141 0.000928 -0.113828 0.934088 0.000000 0.000000 -0.000001 0.148099 23.997470 7.884102 29.641877 8.581678 5.197407 -20.077269 5.362362 -11.797223 -0.000046 -0.000002 0.000002 -0.000000 0.000000 -0.000000 -8.239787 -24.785877 -5.049409 32.674225 8.379350 -10.988216 -16.488454 0.877550 6.237861 -0.668362 -0.000012 -0.000002 -0.000000 -0.000000 -0.000000 
0.632848 83.497040 -0.788172 -9.298492 -12.776516 -2.262282 3.634094 -2.152657 0.214661 7.016082 -4.444058 -0.933548 7.022851 -4.429930 -0.946826 -4.671945 -6.723595 1.832776 -6.681686 -31.133276 3.107539 0.000000 -0.000003 -0.000001 0.661597 1.866904 -9.746847 62.735219 -65.586953 6.979310 0.000025 -25.158380 0.000010 -39.873046 -11.766635 7.577394 1.270447 3.990133 -35.310347 0.415145 2.358919 -19.959151 0.104509 1.197559 -9.975295 0.000000 0.000004 0.000001 -3.315760 -6.596367 -0.791068 4.797687 9.393086 4.249497 -0.172111 2.254778 4.356243 -0.000000 -0.000001 0.000000 1.340956 1.697143 10.669353 5.087851 29.728473 51.320091 -0.000003 30.061544 -0.000005 -8.316281 -15.149781 4.388296 57.005073 5.887430 -50.616520 18.747688 -19.984367 7.037775 5.224509 -6.065431 0.306071 -0.000003 -0.000001 -0.000001 0.030064 -0.647239 5.318866 0.003709 -0.227626 1.868165 0.000927 -0.113828 0.934072 -0.000001 -0.000001 -0.000000 0.236815 23.217874 7.686647 29.110010 8.597887 5.205225 -19.645108 4.447396 -11.924703 -0.000001 0.000002 -0.000004 -0.000000 -0.000000 0.000000 -7.607787 -25.641632 -5.359196 32.501052 8.368429 -10.986870 -17.051543 0.009072 6.238834 -0.618774 -0.000003 0.000000 0.000000 0.000002 -0.000000 
0.400732 83.575020 -0.582762 -9.213555 -11.294543 -1.764069 3.612076 -1.948144 0.019527 6.976754 -4.026971 -1.275741 6.982100 -4.013484 -1.287438 -4.815036 -6.672046 2.105347 -7.019742 -30.580017 3.411466 -0.000000 -0.000001 0.000000 0.654943 1.857380 -9.621924 60.790432 -65.391104 4.918429 0.000011 -24.453971 0.000000 -38.736171 -11.990093 6.943098 1.268477 3.987356 -35.282008 0.680679 2.989881 -25.645561 0.172169 1.533167 -12.813896 -0.000000 -0.000000 0.000001 -3.472755 -5.485772 -1.249501 5.087920 9.561442 4.403657 -0.026683 2.330929 4.453872 0.000001 0.000001 0.000000 1.363606 1.561539 10.755834 4.902080 30.157027 51.480054 0.000000 30.037212 -0.000040 -8.529893 -14.844718 5.226401 55.925364 5.839867 -49.758437 18.509697 -19.817823 6.917411 5.122033 -5.965912 0.267042 0.000002 0.000001 -0.000001 0.030983 -0.657052 5.399733 0.003712 -0.227625 1.868149 0.000926 -0.113830 0.934080 -0.000000 0.000000 0.000001 0.322403 22.458856 7.526684 28.609704 8.597118 5.128931 -19.245142 3.611744 -11.996481 -0.000008 -0.000003 0.000000 -0.000000 0.000000 0.000000 -6.985419 -26.281528 -5.564114 32.296549 8.337207 -10.985484 -17.537715 -0.919125 6.246415 -0.552380 0.000002 -0.000001 0.000000 -0.000000 -0.000000 
0.188914 83.653931 -0.384338 -9.150237 -9.899083 -1.346580 3.582074 -1.750622 -0.152807 6.922211 -3.625299 -1.594627 6.926481 -3.612196 -1.604884 -4.908972 -6.605509 2.361307 -7.421591 -29.984561 3.650064 -0.000000 -0.000001 0.000000 0.650871 1.783482 -9.482228 58.578079 -65.229229 2.492247 0.000002 -23.572135 0.000021 -37.427493 -12.399669 6.424820 1.263982 3.981024 -35.217371 0.983050 3.550678 -30.942280 0.249997 1.842057 -15.455900 0.000001 0.000001 0.000001 -3.585457 -4.172794 -1.671842 5.373386 9.723610 4.552296 0.116448 2.403894 4.548349 -0.000002 -0.000000 0.000001 1.387336 1.436692 10.842849 4.759893 30.562009 51.726027 0.000011 30.097085 -0.000038 -8.848149 -14.364668 5.757435 54.774767 5.807782 -48.846323 18.256257 -19.638167 6.782885 5.013049 -5.858711 0.222386 0.000002 -0.000003 0.000002 0.031902 -0.666670 5.479068 0.003711 -0.227623 1.868172 0.000926 -0.113831 0.934074 0.000001 0.000000 -0.000000 0.368758 21.804045 7.464051 28.167253 8.403065 5.007224 -18.889998 2.901332 -11.976277 -0.000012 0.000002 -0.000002 -0.000000 0.000000 -0.000000 -6.343434 -26.758337 -5.818221 31.949405 7.887446 -10.708297 -17.947908 -1.392878 6.311803 -0.480001 0.000010 -0.000000 -0.000000 -0.000000 -0.000000 
